HIERARCHY
ROOT Hips
{
	OFFSET 0.000000 0.000000 0.000000
	CHANNELS 6 Xposition Yposition Zposition Zrotation Yrotation Xrotation 
	JOINT LowerBack
	{
		OFFSET 0.000000 0.000000 0.000000
		CHANNELS 3 Zrotation Yrotation Xrotation
		JOINT Spine
		{
			OFFSET 0.028270 2.035590 -0.193380
			CHANNELS 3 Zrotation Yrotation Xrotation
			JOINT Spine1
			{
				OFFSET 0.056720 2.048850 -0.042750
				CHANNELS 3 Zrotation Yrotation Xrotation
				JOINT Neck
				{
					OFFSET 0.000000 0.000000 0.000000
					CHANNELS 3 Zrotation Yrotation Xrotation
					JOINT Neck1
					{
						OFFSET -0.054170 1.746240 0.172020
						CHANNELS 3 Zrotation Yrotation Xrotation
						JOINT Head
						{
							OFFSET 0.104070 1.761360 -0.123970
							CHANNELS 3 Zrotation Yrotation Xrotation
							End Site
							{
								OFFSET 0.000000 0.000000 0.000000
							}
						}
					}
				}
				JOINT LeftShoulder
				{
					OFFSET 0.000000 0.000000 0.000000
					CHANNELS 3 Zrotation Yrotation Xrotation
					JOINT LeftArm
					{
						OFFSET 3.362410 1.200890 -0.311210
						CHANNELS 3 Zrotation Yrotation Xrotation
						JOINT LeftForeArm
						{
							OFFSET 4.983000 -0.000000 -0.000000
							CHANNELS 3 Zrotation Yrotation Xrotation
							JOINT LeftHand
							{
								OFFSET 3.483560 -0.000000 -0.000000
								CHANNELS 3 Zrotation Yrotation Xrotation
								JOINT LeftFingerBase
								{
									OFFSET 0.000000 0.000000 0.000000
									CHANNELS 3 Zrotation Yrotation Xrotation
									JOINT LeftHandIndex1
									{
										OFFSET 0.715260 -0.000000 -0.000000
										CHANNELS 3 Zrotation Yrotation Xrotation
										End Site
										{
											OFFSET 0.000000 0.000000 0.000000
										}
									}
								}
								JOINT LThumb
								{
									OFFSET 0.000000 0.000000 0.000000
									CHANNELS 3 Zrotation Yrotation Xrotation
									End Site
									{
										OFFSET 0.000000 0.000000 0.000000
									}
								}
							}
						}
					}
				}
				JOINT RightShoulder
				{
					OFFSET 0.000000 0.000000 0.000000
					CHANNELS 3 Zrotation Yrotation Xrotation
					JOINT RightArm
					{
						OFFSET -3.136600 1.374050 -0.404650
						CHANNELS 3 Zrotation Yrotation Xrotation
						JOINT RightForeArm
						{
							OFFSET -5.241900 -0.000000 -0.000000
							CHANNELS 3 Zrotation Yrotation Xrotation
							JOINT RightHand
							{
								OFFSET -3.444170 -0.000000 -0.000000
								CHANNELS 3 Zrotation Yrotation Xrotation
								JOINT RightFingerBase
								{
									OFFSET 0.000000 0.000000 0.000000
									CHANNELS 3 Zrotation Yrotation Xrotation
									JOINT RightHandIndex1
									{
										OFFSET -0.622530 -0.000000 -0.000000
										CHANNELS 3 Zrotation Yrotation Xrotation
										End Site
										{
											OFFSET 0.000000 0.000000 0.000000
										}
									}
								}
								JOINT RThumb
								{
									OFFSET 0.000000 0.000000 0.000000
									CHANNELS 3 Zrotation Yrotation Xrotation
									End Site
									{
										OFFSET 0.000000 0.000000 0.000000
									}
								}
							}
						}
					}
				}
			}
		}
	}
}
}
MOTION
Frames: 14
Frame Time: 0.008333
-10.973674 16.632740 -2.612612 5.166857 83.656971 21.355877 -6.598222 0.726220 0.995717 -2.143905 1.091035 -2.452233 -6.229501 1.054865 2.096591 8.574385 -3.647198 -5.037870 -3.276473 -0.271623 0.537534 0.000000 0.000000 0.000000 -8.305084 15.727339 1.255781 -53.751204 12.713066 19.039396 -4.302218 -33.052530 -0.037897 -14.247908 1.599501 -0.216081 -0.108298 -0.140294 -0.000000 0.000000 0.000000 0.000000 0.000000 0.000000 0.000000 13.989998 0.214304 0.884418 45.607293 23.107794 24.489876 1.732554 59.129868 0.022273 10.110991 10.526249 0.959714 -0.075383 -0.206542 -0.000000 0.000000 0.000000 0.000000 0.000000 0.000000 0.000000 
-10.819307 16.658914 -2.637278 7.165482 83.565895 23.401844 -6.984923 0.642331 1.036883 -2.225665 1.027901 -2.453630 -6.281650 0.990171 2.070235 8.616855 -3.623439 -4.985494 -3.312596 -0.274556 0.546262 0.000000 0.000000 0.000000 -8.308659 15.447921 1.283974 -53.875622 12.182728 19.098980 -4.322672 -32.692472 -0.037569 -14.251362 1.802326 -0.240871 -0.109413 -0.137316 -0.000000 0.000000 0.000000 0.000000 0.000000 0.000000 0.000000 14.156787 0.161723 0.844687 46.400905 22.473719 24.679936 1.784219 58.462250 0.022150 10.127415 10.448719 0.953330 -0.071587 -0.200700 -0.000000 0.000000 0.000000 0.000000 0.000000 0.000000 0.000000 
-10.669649 16.687740 -2.663562 8.496444 83.435548 24.797243 -7.285533 0.579132 1.080433 -2.291787 0.980380 -2.454955 -6.330337 0.941223 2.042053 8.619336 -3.592005 -4.925454 -3.346596 -0.277390 0.557213 0.000000 0.000000 0.000000 -8.330780 15.146644 1.311584 -53.976393 11.591264 19.254456 -4.335182 -32.386265 -0.037074 -14.232320 1.983928 -0.262558 -0.110222 -0.134070 -0.000000 0.000000 0.000000 0.000000 0.000000 0.000000 0.000000 14.271047 0.118671 0.806757 47.188140 21.840759 24.852465 1.836424 57.760452 0.021979 10.151931 10.360200 0.946847 -0.068008 -0.194651 -0.000000 0.000000 0.000000 0.000000 0.000000 0.000000 0.000000 
-10.524559 16.718759 -2.691301 9.210617 83.265816 25.590136 -7.507753 0.535741 1.124747 -2.343242 0.948130 -2.456037 -6.375524 0.907654 2.014063 8.586250 -3.553913 -4.860483 -3.378308 -0.280081 0.569701 0.000000 0.000000 0.000000 -8.366969 14.837506 1.338360 -54.054203 10.932894 19.489435 -4.340267 -32.136571 -0.036378 -14.182526 2.139224 -0.280442 -0.110764 -0.130537 -0.000000 0.000000 0.000000 0.000000 0.000000 0.000000 0.000000 14.338273 0.085000 0.770740 47.960180 21.214456 25.013714 1.888149 57.035372 0.021749 10.181802 10.258533 0.939560 -0.064680 -0.188453 -0.000000 0.000000 0.000000 0.000000 0.000000 0.000000 0.000000 
-10.383807 16.751503 -2.720254 9.369772 83.060565 25.837204 -7.657338 0.509779 1.170928 -2.380621 0.929240 -2.456404 -6.417281 0.887558 1.987091 8.522591 -3.508432 -4.792128 -3.407441 -0.282584 0.583337 0.000000 0.000000 0.000000 -8.412924 14.530112 1.364620 -54.109436 10.207288 19.779782 -4.338950 -31.945480 -0.035464 -14.095548 2.265228 -0.293619 -0.111107 -0.126705 -0.000000 0.000000 0.000000 0.000000 0.000000 0.000000 0.000000 14.362815 0.061730 0.736353 48.712673 20.595652 25.167479 1.938474 56.297303 0.021458 10.214111 10.143458 0.931271 -0.061621 -0.182168 -0.000000 0.000000 0.000000 0.000000 0.000000 0.000000 0.000000 
-10.247060 16.785567 -2.750059 9.071841 82.828456 25.629471 -7.741776 0.496947 1.222734 -2.404933 0.919983 -2.454935 -6.455890 0.877287 1.962181 8.435625 -3.456971 -4.722702 -3.433869 -0.284857 0.597458 0.000000 0.000000 0.000000 -8.463297 14.232854 1.391055 -54.142222 9.413669 20.098847 -4.332850 -31.811131 -0.034330 -13.968084 2.360755 -0.301991 -0.111346 -0.122561 -0.000000 0.000000 0.000000 0.000000 0.000000 0.000000 0.000000 14.352475 0.046809 0.703295 49.440912 19.985838 25.318114 1.986453 55.557132 0.021097 10.245649 10.016412 0.921780 -0.058841 -0.175858 -0.000000 0.000000 0.000000 0.000000 0.000000 0.000000 0.000000 
-10.113972 16.820651 -2.780310 8.430779 82.580676 25.073277 -7.769475 0.491988 1.285184 -2.417477 0.915695 -2.450443 -6.491771 0.872264 1.939543 8.333382 -3.400640 -4.653658 -3.457580 -0.286873 0.611617 0.000000 0.000000 0.000000 -8.512497 13.949087 1.418699 -54.152561 8.556113 20.417343 -4.323970 -31.730417 -0.032992 -13.800545 2.426602 -0.305657 -0.111596 -0.118105 -0.000000 0.000000 0.000000 0.000000 0.000000 0.000000 0.000000 14.315735 0.037856 0.671214 50.142407 19.383553 25.468391 2.031251 54.825364 0.020671 10.273219 9.881521 0.911185 -0.056336 -0.169597 0.000000 0.000000 0.000000 0.000000 0.000000 0.000000 0.000000 
-9.984083 16.856550 -2.810462 7.586332 82.330712 24.302044 -7.753361 0.488908 1.362292 -2.420664 0.911175 -2.442290 -6.525983 0.867330 1.917985 8.226423 -3.341757 -4.585118 -3.479275 -0.288684 0.625718 0.000000 0.000000 0.000000 -8.553950 13.670299 1.448698 -54.138853 7.652824 20.699219 -4.314412 -31.705816 -0.031504 -13.599136 2.468108 -0.305418 -0.111962 -0.113397 -0.000000 0.000000 0.000000 0.000000 0.000000 0.000000 0.000000 14.266637 0.030635 0.640924 50.811706 18.784275 25.617898 2.072298 54.115913 0.020185 10.298197 9.742122 0.899888 -0.054128 -0.163449 0.000000 0.000000 0.000000 0.000000 0.000000 0.000000 0.000000 
-9.856975 16.893073 -2.840291 6.601130 82.090834 23.373777 -7.697517 0.483292 1.457672 -2.415254 0.902273 -2.429406 -6.559487 0.858477 1.898590 8.122692 -3.285710 -4.519841 -3.499399 -0.290283 0.638996 0.000000 0.000000 0.000000 -8.586427 13.399104 1.481797 -54.098524 6.705493 20.922216 -4.306350 -31.732060 -0.029910 -13.374282 2.488952 -0.302074 -0.112576 -0.108456 -0.000000 0.000000 0.000000 0.000000 0.000000 0.000000 0.000000 14.215926 0.018382 0.612440 51.444205 18.189065 25.765563 2.109386 53.439098 0.019654 10.323848 9.605259 0.888888 -0.052250 -0.157471 0.000000 0.000000 0.000000 0.000000 0.000000 0.000000 0.000000 
-9.732291 16.929981 -2.869050 5.638741 81.874928 22.449771 -7.622966 0.469013 1.570804 -2.404879 0.884081 -2.411488 -6.590344 0.840795 1.881694 8.027272 -3.232448 -4.457991 -3.515856 -0.291520 0.651393 0.000000 0.000000 0.000000 -8.595160 13.139765 1.519426 -54.036549 5.704493 21.092849 -4.301708 -31.783286 -0.028186 -13.123336 2.480301 -0.294625 -0.113485 -0.103217 -0.000000 0.000000 0.000000 0.000000 0.000000 0.000000 0.000000 14.159254 -0.001052 0.582398 52.054999 17.588971 25.916538 2.141036 52.790961 0.019074 10.325308 9.482571 0.877187 -0.050462 -0.151820 0.000000 0.000000 0.000000 0.000000 0.000000 0.000000 0.000000 
-9.609603 16.967244 -2.896868 4.669791 81.692159 21.502041 -7.524368 0.444967 1.700042 -2.389084 0.855114 -2.389843 -6.622175 0.812759 1.864207 7.949475 -3.189277 -4.398495 -3.531901 -0.292662 0.663344 0.000000 0.000000 0.000000 -8.588587 12.862995 1.561481 -53.942924 4.699446 21.164467 -4.301208 -31.888829 -0.026484 -12.874341 2.461821 -0.286173 -0.114743 -0.097906 -0.000000 0.000000 0.000000 0.000000 0.000000 0.000000 0.000000 14.120052 -0.035632 0.555814 52.622959 16.980752 26.059020 2.168723 52.194125 0.018477 10.331548 9.373606 0.867083 -0.048992 -0.146453 0.000000 0.000000 0.000000 0.000000 0.000000 0.000000 0.000000 
-9.488601 17.004608 -2.923530 3.740816 81.551929 20.580330 -7.408804 0.408703 1.841087 -2.369078 0.813293 -2.364771 -6.653956 0.772311 1.847829 7.891348 -3.160652 -4.343202 -3.546249 -0.293603 0.674447 0.000000 0.000000 0.000000 -8.561333 12.574490 1.608271 -53.818895 3.680121 21.151978 -4.305695 -32.030856 -0.024793 -12.633203 2.428949 -0.276418 -0.116358 -0.092490 -0.000000 0.000000 0.000000 0.000000 0.000000 0.000000 0.000000 14.095096 -0.090790 0.530659 53.155687 16.362142 26.193674 2.192140 51.645096 0.017871 10.331696 9.287679 0.858679 -0.047709 -0.141452 0.000000 0.000000 0.000000 0.000000 0.000000 0.000000 0.000000 
-9.368972 17.041929 -2.948970 2.853115 81.460675 19.692267 -7.276791 0.359615 1.986703 -2.345221 0.757970 -2.337659 -6.686718 0.718755 1.832905 7.856370 -3.155239 -4.293069 -3.559816 -0.294420 0.684603 0.000000 0.000000 0.000000 -8.515257 12.263879 1.659134 -53.658911 2.663378 21.054079 -4.314816 -32.216304 -0.023169 -12.414081 2.387184 -0.266362 -0.118290 -0.087066 -0.000000 0.000000 0.000000 0.000000 0.000000 0.000000 0.000000 14.092854 -0.175861 0.508269 53.646422 15.735422 26.318975 2.212099 51.148551 0.017272 10.331954 9.226695 0.852574 -0.046613 -0.136814 0.000000 0.000000 0.000000 0.000000 0.000000 0.000000 0.000000 
-9.250763 17.078833 -2.973125 2.016172 81.421888 18.848727 -7.130872 0.298004 2.134073 -2.317664 0.689535 -2.310172 -6.718150 0.652265 1.814810 7.839028 -3.158923 -4.241976 -3.570457 -0.295042 0.695619 0.000000 0.000000 0.000000 -8.442019 11.920887 1.715859 -53.472137 1.660915 20.878773 -4.328338 -32.434051 -0.021589 -12.218188 2.335274 -0.255904 -0.120450 -0.081588 -0.000000 0.000000 0.000000 0.000000 0.000000 0.000000 0.000000 14.093499 -0.275453 0.486676 54.116148 15.072999 26.415961 2.228373 50.699325 0.016683 10.324883 9.192504 0.848368 -0.045639 -0.132587 0.000000 0.000000 0.000000 0.000000 0.000000 0.000000 0.000000 
